<?xml version="1.0" encoding="utf-8"?>
<!-- Generator: Adobe Illustrator 16.0.0, SVG Export Plug-In . SVG Version: 6.00 Build 0)  -->
<!DOCTYPE svg PUBLIC "-//W3C//DTD SVG 1.1//EN" "http://www.w3.org/Graphics/SVG/1.1/DTD/svg11.dtd">
<svg version="1.1" id="Layer_3" xmlns="http://www.w3.org/2000/svg" xmlns:xlink="http://www.w3.org/1999/xlink" x="0px" y="0px"
	 width="30px" height="26.121px" viewBox="0 0 30 26.121" enable-background="new 0 0 30 26.121" xml:space="preserve">
<g>
	<path fill="none" stroke="#4F453C" stroke-linecap="round" stroke-linejoin="round" stroke-miterlimit="10" d="M14.826,8.895
		c2.464,0,4.46,1.997,4.46,4.46"/>
	<path fill="none" stroke="#4F453C" stroke-linecap="round" stroke-linejoin="round" stroke-miterlimit="10" d="M14.883,4.558
		c4.857,0,8.797,3.938,8.797,8.797"/>
	<path fill="none" stroke="#4F453C" stroke-linecap="round" stroke-linejoin="round" stroke-miterlimit="10" d="M14.883,0.38
		c7.165,0,12.973,5.809,12.973,12.975"/>
	<path fill="none" stroke="#4F453C" stroke-linecap="round" stroke-linejoin="round" stroke-miterlimit="10" d="M13.042,19.247
		c2.259,2.257,3.118-3.1,6.859-1.553c1.004,0.415,2.828,2.13,3.719,3.02c0.837,0.837-0.017,1.579-0.017,1.579l-1.667,1.668
		c-2.865,2.865-9.01,2.04-11.874-0.825l-5.333-5.333C1.864,14.938,1.073,8.83,3.938,5.965L5.71,4.142c0,0,0.659-0.679,1.326-0.011
		c0.493,0.493,2.855,3.277,3.296,4.382c1.602,4.019-4.111,3.911-1.864,6.158L13.042,19.247z"/>
</g>
</svg>
